<svg width="81" height="48" viewBox="0 0 81 48" fill="none" xmlns="http://www.w3.org/2000/svg">
<g clip-path="url(#clip0_5196_450)">
<path fill-rule="evenodd" clip-rule="evenodd" d="M4.80024 16.1982V34.1725H0V16.1982H4.80024Z" fill="black"/>
<path fill-rule="evenodd" clip-rule="evenodd" d="M7.19995 16.1982H17.4005C20.7144 16.1982 23.4008 18.8807 23.4008 22.1897C23.4008 25.4987 20.7144 28.1811 17.4005 28.1811H12.0002V34.1725H7.19995V16.1982ZM12.0002 23.388H17.4005C18.0633 23.388 18.6005 22.8515 18.6005 22.1897C18.6005 21.5279 18.0633 20.9914 17.4005 20.9914H12.0002V23.388Z" fill="black"/>
<path fill-rule="evenodd" clip-rule="evenodd" d="M41.4003 16.1982V25.485C41.4003 27.6358 43.1465 29.3794 45.3005 29.3794C47.4546 29.3794 49.2008 27.6358 49.2008 25.485V16.1982H54.0011V25.485C54.0011 30.283 50.1057 34.1725 45.3005 34.1725C40.4954 34.1725 36.6001 30.283 36.6001 25.485V16.1982H41.4003Z" fill="black"/>
<path fill-rule="evenodd" clip-rule="evenodd" d="M25.2001 24.5862C25.2001 19.9537 28.9611 16.1982 33.6006 16.1982H34.8006V20.9914H33.6006C31.6122 20.9914 30.0004 22.6009 30.0004 24.5862V25.1854C30.0004 30.1488 25.9707 34.1725 20.9999 34.1725H20.3999V29.3794H20.9999C23.3196 29.3794 25.2001 27.5017 25.2001 25.1854V24.5862Z" fill="black"/>
<path d="M81 16.7974C81 17.7901 80.1943 18.5949 79.1997 18.5949C78.2056 18.5949 77.3999 17.7901 77.3999 16.7974C77.3999 15.8047 78.2056 15 79.1997 15C80.1943 15 81 15.8047 81 16.7974Z" fill="black"/>
<path d="M59.154 34.1728L61.4445 24.5957L63.1474 30.3574C64.1626 33.7938 69.0374 33.7938 70.0531 30.3574L71.7555 24.5957L74.046 34.1728H78.9808L75.3794 19.1133C74.5229 15.532 69.4688 15.3994 68.4249 18.9309L66.6003 25.1063L64.7751 18.9309C63.7317 15.3995 58.6771 15.532 57.8206 19.1133L54.2192 34.1728H59.154Z" fill="black"/>
</g>
<defs>
<clipPath id="clip0_5196_450">
<rect width="81" height="48" fill="white"/>
</clipPath>
</defs>
</svg>
